<svg width="25" height="25" viewBox="0 0 25 25" fill="none" xmlns="http://www.w3.org/2000/svg">
<path d="M12.5001 4.16666C13.6051 4.16666 14.665 4.60564 15.4464 5.38704C16.2278 6.16845 16.6667 7.22825 16.6667 8.33332C16.6667 9.43839 16.2278 10.4982 15.4464 11.2796C14.665 12.061 13.6051 12.5 12.5001 12.5C11.395 12.5 10.3352 12.061 9.5538 11.2796C8.7724 10.4982 8.33341 9.43839 8.33341 8.33332C8.33341 7.22825 8.7724 6.16845 9.5538 5.38704C10.3352 4.60564 11.395 4.16666 12.5001 4.16666ZM12.5001 6.24999C11.9475 6.24999 11.4176 6.46948 11.0269 6.86018C10.6362 7.25088 10.4167 7.78079 10.4167 8.33332C10.4167 8.88586 10.6362 9.41576 11.0269 9.80646C11.4176 10.1972 11.9475 10.4167 12.5001 10.4167C13.0526 10.4167 13.5825 10.1972 13.9732 9.80646C14.3639 9.41576 14.5834 8.88586 14.5834 8.33332C14.5834 7.78079 14.3639 7.25088 13.9732 6.86018C13.5825 6.46948 13.0526 6.24999 12.5001 6.24999ZM12.5001 13.5417C15.2813 13.5417 20.8334 14.9271 20.8334 17.7083V20.8333H4.16675V17.7083C4.16675 14.9271 9.71883 13.5417 12.5001 13.5417ZM12.5001 15.5208C9.40633 15.5208 6.14591 17.0417 6.14591 17.7083V18.8542H18.8542V17.7083C18.8542 17.0417 15.5938 15.5208 12.5001 15.5208Z" fill="#222222"/>
</svg>
