<svg width="25" height="25" viewBox="0 0 25 25" fill="none" xmlns="http://www.w3.org/2000/svg">
<path d="M11.4584 9.37499H13.5417V6.24999H16.6667V4.16666H13.5417V1.04166H11.4584V4.16666H8.33341V6.24999H11.4584V9.37499ZM7.29175 18.75C6.14591 18.75 5.21883 19.6875 5.21883 20.8333C5.21883 21.9792 6.14591 22.9167 7.29175 22.9167C8.43758 22.9167 9.37508 21.9792 9.37508 20.8333C9.37508 19.6875 8.43758 18.75 7.29175 18.75ZM17.7084 18.75C16.5626 18.75 15.6355 19.6875 15.6355 20.8333C15.6355 21.9792 16.5626 22.9167 17.7084 22.9167C18.8542 22.9167 19.7917 21.9792 19.7917 20.8333C19.7917 19.6875 18.8542 18.75 17.7084 18.75ZM8.43758 13.5417H16.198C16.9792 13.5417 17.6667 13.1146 18.0209 12.4687L22.0417 5.16666L20.2188 4.16666L16.198 11.4583H8.8855L4.448 2.08332H1.04175V4.16666H3.12508L6.87508 12.0729L5.46883 14.6146C4.70841 16.0104 5.70841 17.7083 7.29175 17.7083H19.7917V15.625H7.29175L8.43758 13.5417Z" fill="#222222"/>
</svg>
